Coordinates
version=1
nRows=19
nColumns=36
inDegrees=yes

Units are S.I. units (second, meters, Newtons, ...)
If the header above contains a line with 'inDegrees', this indicates whether rotational values are in degrees (yes) or radians (no).

endheader
time	pelvis_tilt	pelvis_list	pelvis_rotation	pelvis_tx	pelvis_ty	pelvis_tz	hip_flexion_r	hip_adduction_r	hip_rotation_r	knee_angle_r	knee_angle_r_beta	ankle_angle_r	subtalar_angle_r	mtp_angle_r	hip_flexion_l	hip_adduction_l	hip_rotation_l	knee_angle_l	knee_angle_l_beta	ankle_angle_l	subtalar_angle_l	mtp_angle_l	lumbar_extension	lumbar_bending	lumbar_rotation	arm_flex_r	arm_add_r	arm_rot_r	elbow_flex_r	pro_sup_r	arm_flex_l	arm_add_l	arm_rot_l	elbow_flex_l	pro_sup_l
      1.63000000	    -19.16002132	      3.11096436	     -3.84318803	     -0.31454846	      0.62471808	     -0.57780351	     82.00879359	      2.84132960	      5.58853064	     99.28848842	      1.73291103	     33.33620152	     -8.65798335	     -7.50008372	     79.17619029	    -11.93590881	     -3.26297804	     98.65674986	      1.72188511	     35.29643052	      2.25047116	     -7.50008372	    -36.60215500	     -0.68058768	      0.85448515	    127.98202161	     -4.62585080	     33.19794008	     96.58287983	    101.38310432	    131.69139864	    -18.14146638	     46.61148813	    107.62402669	    104.78834725
      1.64000000	    -18.76982039	      3.23676506	     -3.78306961	     -0.30775723	      0.63771776	     -0.57731544	     79.79611591	      2.56397606	      5.54627071	     97.51122643	      1.70189196	     32.62167571	     -8.88106075	     -7.50008134	     76.85664365	    -11.78623057	     -3.98473339	     96.68770425	      1.68751879	     34.34797975	      2.01992766	     -7.50008134	    -35.42811445	     -0.67129010	      0.44106579	    127.45371232	     -4.58414623	     32.16906759	     96.60551909	    101.49086541	    132.38321427	    -18.83762291	     47.59180205	    107.13536396	    104.71202663
      1.65000000	    -18.62007906	      3.20313298	     -3.74591573	     -0.30075096	      0.65108102	     -0.57691644	     77.73000735	      2.36021900	      5.39259954	     95.49648968	      1.66672817	     32.03841990	     -8.68301672	     -7.50008082	     74.80333697	    -11.67248321	     -4.45047948	     94.61453797	      1.65133521	     33.72261214	      2.16747707	     -7.50008082	    -33.75099495	     -0.37323228	      0.56167368	    126.40172083	     -4.99334733	     31.95862207	     96.76123280	    101.49965223	    131.88196843	    -19.65844305	     48.19626831	    107.04733976	    104.65594770
      1.66000000	    -17.96867635	      3.48249209	     -3.82684196	     -0.29331455	      0.66611262	     -0.57621688	     75.18946852	      2.04518946	      5.46164310	     93.45153354	      1.63103695	     30.17620804	     -9.67836024	     -7.50007550	     71.98228871	    -11.58744460	     -5.50136764	     92.27697618	      1.61053706	     31.84599134	      1.40290180	     -7.50007550	    -32.59213624	     -0.63576958	     -0.13696191	    123.99937575	     -5.23535752	     30.18484929	     97.54494693	    102.82843772	    132.20818667	    -21.47053604	     50.39290443	    107.54476579	    104.48911801
      1.67000000	    -17.41219308	      3.54610912	     -3.91228640	     -0.28553524	      0.68183739	     -0.57580359	     72.60382835	      1.71564029	      5.31470006	     91.18272763	      1.59143882	     29.12680189	     -9.30990203	     -7.50007482	     69.24189086	    -11.55193538	     -6.24005480	     89.81972191	      1.56764988	     30.73645592	      1.73798226	     -7.50007482	    -31.09593401	     -0.46763476	      0.07317918	    121.53705783	     -6.36214050	     30.03460131	     98.22086527	    102.97649880	    130.82948304	    -23.13822705	     51.49176528	    108.34632035	    104.52010509
      1.68000000	    -16.66081507	      3.90543958	     -4.10219837	     -0.27757109	      0.69891850	     -0.57528427	     69.81275047	      1.31064098	      5.49686606	     88.69251960	      1.54797649	     27.13270960	     -9.62560758	     -7.50007320	     66.04516811	    -11.39914775	     -7.42879712	     86.92478015	      1.51712362	     28.65280997	      1.54717918	     -7.50007320	    -29.93195769	     -0.70186874	     -0.12156437	    118.43373190	     -7.39492123	     29.06925887	     99.33624465	    103.46594382	    129.95386941	    -25.38081774	     53.17243731	    109.90323335	    104.46726186
      1.69000000	    -15.96051336	      3.98774242	     -4.25220589	     -0.26922700	      0.71650888	     -0.57491538	     66.92358026	      0.90042807	      5.29869071	     85.99196942	      1.50084300	     25.70716470	     -9.31452402	     -7.50007254	     62.94935308	    -11.32118094	     -8.32196404	     84.00547486	      1.46617213	     27.26047629	      1.76565830	     -7.50007254	    -28.42326208	     -0.53374959	      0.21590675	    114.99498674	     -9.29802720	     29.30952647	    100.04264871	    103.64135407	    127.89532750	    -27.72034967	     54.85861440	    111.42495795	    104.54698000
      1.70000000	    -15.08345747	      4.36215087	     -4.54121047	     -0.26071754	      0.73549206	     -0.57417160	     63.79765929	      0.41713976	      5.36570264	     82.94096108	      1.44759286	     22.62887169	    -10.61592211	     -7.50006948	     59.38755344	    -11.12435233	     -9.69681167	     80.51829162	      1.40530930	     24.26589768	      0.78575771	     -7.50006948	    -27.22990550	     -0.86270799	      0.24096638	    110.87367834	    -11.19133555	     28.73648175	    101.00597769	    104.53077802	    126.36601542	    -30.39153450	     57.24456285	    113.47620985	    104.15302143
      1.71000000	    -14.22317421	      4.59977243	     -4.77078331	     -0.25183947	      0.75529556	     -0.57366958	     60.51149600	     -0.19184970	      5.20642110	     79.60051939	      1.38929115	     20.24286904	    -10.76321470	     -7.50006608	     55.71659239	    -10.84291727	    -10.89531812	     76.76692515	      1.33983560	     21.83876388	      0.82752311	     -7.50006608	    -25.83650971	     -0.91696710	      0.71413132	    106.28226292	    -13.69632578	     28.71780239	    101.49202532	    105.40771365	    123.42088988	    -32.84118573	     58.80002678	    115.38032544	    103.74091669
      1.72000000	    -13.30587626	      4.93242257	     -4.98304047	     -0.24263196	      0.77604672	     -0.57326992	     57.02446950	     -1.02687552	      5.00604971	     75.93448430	      1.32530677	     18.10780807	    -10.07607563	     -7.50006486	     51.79054673	    -10.33821105	    -12.15538413	     72.56181434	      1.26644257	     19.40151163	      1.45208522	     -7.50006486	    -24.42899142	     -1.04284197	      1.14790336	    101.08828589	    -16.25031945	     28.53288726	    101.32334197	    105.64295957	    119.80194769	    -35.33028566	     60.10096149	    117.11679163	    103.82740862
      1.73000000	    -12.43201827	      5.38045565	     -5.15413661	     -0.23310727	      0.79762344	     -0.57280320	     53.42277110	     -2.02459403	      4.77426267	     71.86436838	      1.25426984	     15.49651435	     -9.68044635	     -7.50006340	     47.75275015	     -9.65256277	    -13.59916138	     67.84797713	      1.18417059	     16.29296623	      1.63624840	     -7.50006340	    -22.84772067	     -1.30941478	      1.60723743	     95.09010745	    -18.86201051	     27.86710467	    100.29645364	    105.94641400	    115.27602882	    -37.54869849	     61.11848259	    118.43373252	    104.00978233
      1.74000000	    -11.67343712	      5.94500501	     -5.30255921	     -0.22326493	      0.81989912	     -0.57226101	     49.75716861	     -3.19025421	      4.41690188	     67.29569687	      1.17453148	     12.39202704	     -9.63361303	     -7.50006077	     43.71077618	     -8.76278414	    -15.11984729	     62.65760301	      1.09358147	     12.34616122	      1.48275724	     -7.50006077	    -20.99705553	     -1.70944016	      2.24780072	     88.29887587	    -21.51601504	     26.65290863	     98.31736380	    106.55412540	    109.76891609	    -39.22600749	     61.61722101	    119.08049486	    104.48189059
      1.75000000	    -10.80446915	      6.73358158	     -5.40522992	     -0.21316065	      0.84325155	     -0.57156220	     45.74343208	     -4.67428239	      3.99738686	     62.15719872	      1.08484777	      9.42761824	     -8.88714748	     -7.50005874	     39.38705802	     -7.56383266	    -16.81148592	     56.89502940	      0.99300559	      7.84349980	      2.33085305	     -7.50005874	    -19.24623820	     -2.40007675	      2.66751608	     80.95996754	    -23.50518820	     24.43973052	     95.02683905	    106.65513822	    103.84044026	    -40.69349709	     62.01610354	    119.12674868	    104.96888907
      1.76000000	     -9.79550339	      7.61378599	     -5.40998418	     -0.20285468	      0.86759062	     -0.57071285	     41.39029544	     -6.47031021	      3.10376795	     56.56233724	      0.98719902	      6.06506050	     -7.27902453	     -7.50005770	     34.80894475	     -6.02183202	    -18.23381643	     50.49428589	      0.88129154	      2.57220165	      4.09798287	     -7.50005770	    -17.60265472	     -3.29001784	      2.82933273	     73.43398829	    -24.52281892	     21.61507267	     89.94808463	    106.27335776	     97.88503466	    -41.89544939	     62.72580348	    118.21776509	    105.18261778
      1.77000000	     -9.02301995	      8.53309542	     -5.26023614	     -0.19235490	      0.89258526	     -0.57008938	     36.90213743	     -8.28339198	      2.03992303	     50.13385296	      0.87500080	      2.03437046	     -6.22301291	     -7.50005285	     30.48502414	     -4.10746709	    -19.26171455	     43.44845234	      0.75831855	     -4.63170642	      4.07094645	     -7.50005285	    -15.80795715	     -4.20865420	      3.09245223	     65.51952243	    -24.58324397	     16.86147198	     84.22976970	    105.31278533	     90.82363406	    -42.33472361	     61.90183518	    116.51506724	    105.15312270
      1.78000000	     -8.17459371	      9.31527697	     -4.86287523	     -0.18179407	      0.91854782	     -0.56977906	     31.83819361	    -10.02406947	      0.51160955	     42.73390259	      0.74584730	     -3.08514795	     -4.47775469	     -7.50004822	     26.13355601	     -1.98799858	    -19.36231368	     35.86513332	      0.62596466	    -13.03905640	      5.09677537	     -7.50004822	    -14.20599171	     -5.07029911	      3.11391052	     58.07074195	    -23.78804700	     11.59751667	     76.71194034	    107.42530821	     83.84022818	    -42.05789510	     60.70682225	    113.30022958	    108.46272783
      1.79000000	     -7.17754498	      9.84076272	     -4.33143066	     -0.17142731	      0.94535646	     -0.56951117	     26.16834289	    -11.31011895	     -1.18693048	     34.41891564	      0.60072340	     -9.47289127	     -2.43076867	     -7.50005065	     21.55159809	      0.11181321	    -18.25952810	     27.56115014	      0.48103282	    -22.07610127	      6.44521497	     -7.50005065	    -13.05741510	     -5.72334167	      3.05836446	     51.37527931	    -22.51411643	      6.24677253	     68.57697943	    108.29314557	     76.84747827	    -41.10533480	     58.85508991	    109.63114152	    109.65420607
      1.80000000	     -6.35028843	     10.24706772	     -3.68143269	     -0.16168968	      0.97203872	     -0.56915775	     20.39696281	    -11.97720786	     -2.00931312	     25.09043922	      0.43791078	    -18.48002721	     -1.58267208	     -7.50004460	     17.10178552	      2.25767205	    -15.20730230	     19.24851845	      0.33595002	    -29.81930738	      4.56465445	     -7.50004460	    -12.08404058	     -6.23044889	      2.89563904	     45.37134392	    -21.20470430	      1.90833897	     61.27319472	    105.05286383	     69.63103572	    -39.72449286	     56.19729299	    106.44073158	    107.12170728
      1.81000000	     -5.35474596	     10.55950779	     -3.09768402	     -0.15272144	      0.99812120	     -0.56817729	     14.56184582	    -12.29020491	     -2.43586053	     15.50542214	      0.27062067	    -28.64413709	     -0.88607960	     -7.50004861	     12.87027168	      3.75338699	    -12.22866525	     12.92221215	      0.22553515	    -32.07435189	      0.78538347	     -7.50004861	    -11.65556991	     -6.72349728	      2.76616053	     39.89742667	    -19.62976681	     -2.69744918	     54.74119764	    107.09196079	     62.76970527	    -37.65683838	     52.28580670	    102.52544281	    109.21140881
